<svg width="49" height="48" viewBox="0 0 49 48" fill="none" xmlns="http://www.w3.org/2000/svg">
    <g clip-path="url(#clip0_335_860)">
    <path d="M15.1913 8.48582L17.131 6.54609L22.904 12.2729C23.0579 12.4576 23.2196 12.6424 23.3889 12.8271C23.5583 13.0119 23.7199 13.1966 23.8739 13.3813C24.7975 12.0266 25.1824 10.5179 25.0285 8.85529C24.8745 7.19267 24.2125 5.77636 23.0426 4.60637C21.657 3.19006 20.0637 2.11243 18.2625 1.37349C16.4613 0.634541 14.5755 0.265068 12.605 0.265068H8.91024V3.95979C8.91024 5.93031 9.27972 7.81615 10.0187 9.61733C10.7576 11.4185 11.8352 13.0119 13.2515 14.3974C14.4215 15.5674 15.8225 16.2293 17.4543 16.3833C19.0861 16.5372 20.5794 16.1832 21.9341 15.3211C21.7802 15.1363 21.6185 14.9516 21.4492 14.7668C21.2799 14.5821 21.1028 14.3974 20.9181 14.2126L15.1913 8.48582ZM37.7291 6.54609L39.6688 8.48582L33.942 14.2126C33.7572 14.3974 33.5802 14.5821 33.4109 14.7668C33.2415 14.9516 33.0799 15.1363 32.9259 15.3211C34.2807 16.1832 35.7739 16.5372 37.4058 16.3833C39.0376 16.2293 40.4385 15.5674 41.6085 14.3974C43.0248 13.0119 44.1025 11.4185 44.8414 9.61733C45.5803 7.81615 45.9498 5.93031 45.9498 3.95979V0.265068H42.2551C40.2846 0.265068 38.3987 0.634541 36.5976 1.37349C34.7964 2.11243 33.203 3.19006 31.8175 4.60637C30.6475 5.77636 29.9855 7.19267 29.8316 8.85529C29.6777 10.5179 30.0625 12.0266 30.9862 13.3813C31.1401 13.1966 31.3018 13.0119 31.4711 12.8271C31.6405 12.6424 31.8021 12.4576 31.9561 12.2729L37.7291 6.54609ZM31.8175 14.3974C31.6636 14.2434 31.5173 14.0818 31.3788 13.9124C31.2402 13.7431 31.1094 13.5661 30.9862 13.3813C30.2165 14.2434 29.5391 15.1671 28.9541 16.1524C28.3691 17.1376 27.8611 18.1691 27.43 19.2467C27.0298 18.1691 26.5294 17.1376 25.9291 16.1524C25.3287 15.1671 24.6436 14.2434 23.8739 13.3813C23.7507 13.5661 23.6199 13.7431 23.4813 13.9124C23.3427 14.0818 23.1965 14.2434 23.0426 14.3974C22.8578 14.5821 22.6731 14.7438 22.4883 14.8823C22.3036 15.0209 22.1189 15.1671 21.9341 15.3211C23.1041 16.7374 24.0278 18.3307 24.7052 20.1011C25.3825 21.8715 25.7982 23.6804 25.9521 25.5277C24.8437 25.6509 23.7815 25.9203 22.7654 26.3359C21.7494 26.7516 20.8103 27.2827 19.9482 27.9293C20.3485 28.1448 20.741 28.3834 21.1259 28.6451C21.5108 28.9069 21.9187 29.1763 22.3498 29.4534L27.43 29.5457C29.3082 29.5457 31.0478 30.0615 32.6488 31.0929C34.2499 32.1243 35.4507 33.5022 36.2512 35.2264V35.2725C36.7438 34.9954 37.221 34.6952 37.6829 34.372C38.1447 34.0487 38.5912 33.7177 39.0222 33.379C38.2217 31.2545 36.9208 29.4842 35.1197 28.0678C33.3185 26.6515 31.2479 25.8048 28.9079 25.5277C29.0619 23.6804 29.4775 21.8715 30.1549 20.1011C30.8323 18.3307 31.7559 16.7374 32.9259 15.3211C32.7412 15.1671 32.5565 15.0209 32.3717 14.8823C32.187 14.7438 32.0022 14.5821 31.8175 14.3974ZM17.2696 46.4029C18.5319 46.7108 19.8097 46.9802 21.1028 47.2111C22.396 47.442 23.92 47.5575 25.675 47.5575C28.015 47.5575 30.0779 47.3112 31.8637 46.8186C33.6187 46.2951 35.3198 45.5793 36.967 44.671C38.6143 43.7627 40.3154 42.6774 42.0704 41.415C43.8254 40.1219 45.8728 38.721 48.2128 37.2123C48.1513 37.1507 48.1205 37.1122 48.1205 37.0968C48.1205 37.0814 47.8895 36.7196 47.4277 36.0115C46.7196 34.9647 45.7189 34.3951 44.4257 34.3027C43.1326 34.2103 41.9934 34.5644 41.0081 35.3649C39.9921 36.1654 38.9145 36.9044 37.7752 37.5817C36.636 38.2283 35.4584 38.7825 34.2422 39.2444C33.026 39.7062 31.7713 40.0603 30.4782 40.3066C29.2158 40.5529 27.9227 40.6607 26.5987 40.6299C24.4435 40.6299 22.6346 40.399 21.1721 39.9371C19.7096 39.4753 18.886 39.2136 18.7013 39.152L19.5326 36.5657C19.7789 36.6273 20.5101 36.8505 21.7263 37.2354C22.9425 37.6202 24.505 37.8281 26.414 37.8589C27.6763 37.9204 28.9233 37.8127 30.1549 37.5356C31.3865 37.2585 32.5719 36.8736 33.7111 36.381C33.1568 35.1802 32.3178 34.2026 31.194 33.4483C30.0702 32.6939 28.8156 32.3168 27.43 32.3168H22.5345C22.2266 32.3168 21.9187 32.2706 21.6108 32.1782C21.303 32.0859 21.0259 31.9473 20.7795 31.7626C17.7622 29.7305 15.5146 28.6221 14.0367 28.4373C12.5588 28.2526 10.4189 29.0839 7.61709 30.9313H0.92041V44.7865H2.30593C6.18539 44.7865 9.23353 44.9635 11.4504 45.3176C13.6672 45.6716 15.6069 46.0334 17.2696 46.4029Z" fill="white"/>
    </g>
    <defs>
    <clipPath id="clip0_335_860">
    <rect width="47.2924" height="47.2924" fill="white" transform="matrix(1 0 0 -1 0.92041 47.5575)"/>
    </clipPath>
    </defs>
    </svg>
    