<svg width="16" height="18" viewBox="0 0 16 18" fill="none" xmlns="http://www.w3.org/2000/svg">
    <g clip-path="url(#clip0_100_646)">
    <path d="M15.0852 12.4629C15.0852 12.6387 15.05 12.873 14.9797 13.166C14.9094 13.459 14.8391 13.6875 14.7688 13.8516C14.6282 14.1914 14.218 14.5488 13.5383 14.9238C12.9055 15.2637 12.2844 15.4336 11.675 15.4336C11.4875 15.4336 11.3118 15.4219 11.1477 15.3984C10.9719 15.375 10.7786 15.334 10.5676 15.2754C10.3567 15.2051 10.1985 15.1523 10.093 15.1172C9.98755 15.082 9.80005 15.0176 9.53052 14.9238C9.26099 14.8184 9.09692 14.7539 9.03833 14.7305C8.38208 14.4961 7.79614 14.2207 7.28052 13.9043C6.43677 13.377 5.552 12.6504 4.62622 11.7246C3.71216 10.8105 2.99146 9.93164 2.46411 9.08789C2.13599 8.57227 1.85474 7.98633 1.62036 7.33008C1.60864 7.25977 1.55005 7.0957 1.44458 6.83789C1.35083 6.56836 1.28052 6.38086 1.23364 6.27539C1.19849 6.16992 1.15161 6.01172 1.09302 5.80078C1.03442 5.58984 0.993408 5.39648 0.969971 5.2207C0.946533 5.04492 0.934814 4.86914 0.934814 4.69336C0.934814 4.07227 1.10474 3.45117 1.44458 2.83008C1.81958 2.15039 2.177 1.74023 2.51685 1.59961C2.68091 1.5293 2.90942 1.45898 3.20239 1.38867C3.49536 1.31836 3.72974 1.2832 3.90552 1.2832C3.99927 1.2832 4.06958 1.29492 4.11646 1.31836C4.23364 1.35352 4.40942 1.60547 4.6438 2.07422C4.72583 2.20312 4.8313 2.38477 4.96021 2.61914C5.07739 2.85352 5.19458 3.06445 5.31177 3.25195C5.41724 3.45117 5.51685 3.63281 5.6106 3.79688C5.63403 3.82031 5.69263 3.90234 5.78638 4.04297C5.89185 4.18359 5.96802 4.30664 6.01489 4.41211C6.06177 4.50586 6.08521 4.59961 6.08521 4.69336C6.08521 4.82227 5.9856 4.98633 5.78638 5.18555C5.59888 5.39648 5.3938 5.58398 5.17114 5.74805C4.94849 5.91211 4.73755 6.08789 4.53833 6.27539C4.35083 6.46289 4.25708 6.61523 4.25708 6.73242C4.25708 6.80273 4.27466 6.87891 4.30981 6.96094C4.34497 7.05469 4.37427 7.125 4.39771 7.17188C4.42114 7.21875 4.46802 7.30078 4.53833 7.41797C4.60864 7.52344 4.6438 7.58789 4.6438 7.61133C5.15942 8.52539 5.74536 9.31055 6.40161 9.9668C7.05786 10.623 7.84302 11.2031 8.75708 11.707C8.7688 11.7188 8.83325 11.7598 8.95044 11.8301C9.06763 11.9004 9.14966 11.9473 9.19653 11.9707C9.24341 11.9941 9.30786 12.0234 9.38989 12.0586C9.48364 12.0938 9.55981 12.1113 9.61841 12.1113C9.74731 12.1113 9.90552 12.0117 10.093 11.8125C10.2805 11.625 10.4563 11.4199 10.6204 11.1973C10.7844 10.9746 10.9661 10.7637 11.1653 10.5645C11.3645 10.377 11.5344 10.2832 11.675 10.2832C11.7688 10.2832 11.8625 10.3066 11.9563 10.3535C12.05 10.4004 12.1672 10.4707 12.3079 10.5645C12.4485 10.6699 12.5364 10.7285 12.5715 10.7402C12.7356 10.8457 12.9114 10.9512 13.0989 11.0566C13.2981 11.1621 13.5149 11.2793 13.7493 11.4082C13.9836 11.5371 14.1594 11.6367 14.2766 11.707C14.7454 11.9414 15.0032 12.123 15.05 12.252C15.0735 12.2988 15.0852 12.3691 15.0852 12.4629Z" fill="#EEC044"/>
    </g>
    <defs>
    <clipPath id="clip0_100_646">
    <rect width="14.16" height="18" fill="white" transform="matrix(1 0 0 -1 0.930054 18)"/>
    </clipPath>
    </defs>
    </svg>
    