<svg width="16" height="16" viewBox="0 0 16 16" fill="none" xmlns="http://www.w3.org/2000/svg">
<path d="M10 0C9.17708 0 8.40104 0.15625 7.67188 0.46875C6.94271 0.78125 6.30469 1.21094 5.75781 1.75781C5.21094 2.30469 4.78125 2.94271 4.46875 3.67188C4.15625 4.40104 4 5.17708 4 6C4 7.10417 4.29167 8.23438 4.875 9.39062C5.44792 10.5365 6.08854 11.5833 6.79688 12.5312C7.50521 13.4792 8.16146 14.2656 8.76562 14.8906C9.38021 15.5156 9.71354 15.8542 9.76562 15.9062C9.79688 15.9375 9.83333 15.9609 9.875 15.9766C9.91667 15.9922 9.95833 16 10 16C10.0417 16 10.0833 15.9922 10.125 15.9766C10.1667 15.9609 10.2031 15.9375 10.2344 15.9062C10.2865 15.8542 10.6198 15.5156 11.2344 14.8906C11.8385 14.2656 12.4948 13.4792 13.2031 12.5312C13.9115 11.5833 14.5521 10.5365 15.125 9.39062C15.7083 8.23438 16 7.10417 16 6C16 5.17708 15.8438 4.40104 15.5312 3.67188C15.2188 2.94271 14.7891 2.30469 14.2422 1.75781C13.6953 1.21094 13.0573 0.78125 12.3281 0.46875C11.599 0.15625 10.8229 0 10 0ZM10 9.32812C9.54167 9.32812 9.10938 9.24479 8.70312 9.07812C8.29688 8.90104 7.94271 8.66146 7.64062 8.35938C7.33854 8.05729 7.09896 7.70312 6.92188 7.29688C6.75521 6.89062 6.67188 6.45833 6.67188 6C6.67188 5.54167 6.75521 5.10938 6.92188 4.70312C7.09896 4.29688 7.33854 3.94271 7.64062 3.64062C7.94271 3.33854 8.29688 3.09896 8.70312 2.92188C9.10938 2.75521 9.54167 2.67188 10 2.67188C10.4583 2.67188 10.8906 2.75521 11.2969 2.92188C11.7031 3.09896 12.0573 3.33854 12.3594 3.64062C12.6615 3.94271 12.901 4.29688 13.0781 4.70312C13.2448 5.10938 13.3281 5.54167 13.3281 6C13.3281 6.45833 13.2448 6.89062 13.0781 7.29688C12.901 7.70312 12.6615 8.05729 12.3594 8.35938C12.0573 8.66146 11.7031 8.90104 11.2969 9.07812C10.8906 9.24479 10.4583 9.32812 10 9.32812Z" fill="#EEC044"/>
</svg>
