<svg width="21" height="20" viewBox="0 0 21 20" fill="none" xmlns="http://www.w3.org/2000/svg">
    <path d="M16.75 10.0001C17.525 10.0001 18.2333 10.2334 18.8333 10.6334V6.66676C18.8333 5.7501 18.0833 5.0001 17.1667 5.0001H11.925L11.0417 4.11676L12.2167 2.94176L11.625 2.3501L8.68335 5.29176L9.27502 5.88343L10.45 4.70843L11.3333 5.59176V7.5001C11.3333 8.41676 10.5833 9.16676 9.66668 9.16676H9.21668C10.0416 10.0811 10.4988 11.2686 10.5 12.5001C10.5 12.7834 10.4667 13.0584 10.425 13.3334H13.0417C13.25 11.4584 14.825 10.0001 16.75 10.0001Z" fill="#EEC044"/>
    <path d="M16.75 10.8333C15.1417 10.8333 13.8334 12.1416 13.8334 13.7499C13.8334 15.3583 15.1417 16.6666 16.75 16.6666C18.3584 16.6666 19.6667 15.3583 19.6667 13.7499C19.6667 12.1416 18.3584 10.8333 16.75 10.8333ZM16.75 14.9999C16.0584 14.9999 15.5 14.4416 15.5 13.7499C15.5 13.0583 16.0584 12.4999 16.75 12.4999C17.4417 12.4999 18 13.0583 18 13.7499C18 14.4416 17.4417 14.9999 16.75 14.9999ZM3.83337 7.49992H8.00004C8.00004 6.58325 7.25004 5.83325 6.33337 5.83325H3.83337C3.37504 5.83325 3.00004 6.20825 3.00004 6.66659C3.00004 7.12492 3.37504 7.49992 3.83337 7.49992ZM8.69171 11.5166L8.54171 11.1249L9.31671 10.8333C8.93191 9.95369 8.25067 9.23706 7.39171 8.80825L7.05837 9.54992L6.67504 9.37492L7.00837 8.62492C6.55004 8.44159 6.03337 8.33325 5.50004 8.33325C5.05837 8.33325 4.63337 8.42492 4.23337 8.54992L4.51671 9.30825L4.12504 9.45825L3.83337 8.68325C2.95382 9.06804 2.23718 9.74929 1.80837 10.6083L2.55004 10.9416L2.37504 11.3249L1.62504 10.9916C1.44171 11.4499 1.33337 11.9666 1.33337 12.4999C1.33337 12.9416 1.42504 13.3666 1.55004 13.7666L2.30837 13.4833L2.45837 13.8749L1.68337 14.1666C2.06817 15.0461 2.74941 15.7628 3.60837 16.1916L3.94171 15.4499L4.32504 15.6249L3.99171 16.3749C4.45004 16.5583 4.96671 16.6666 5.50004 16.6666C5.94171 16.6666 6.36671 16.5749 6.76671 16.4499L6.48337 15.6916L6.87504 15.5416L7.16671 16.3166C8.04627 15.9318 8.7629 15.2505 9.19171 14.3916L8.45004 14.0583L8.62504 13.6749L9.37504 14.0083C9.55837 13.5499 9.66671 13.0333 9.66671 12.4999C9.66671 12.0583 9.57504 11.6333 9.45004 11.2333L8.69171 11.5166ZM6.45837 14.8083C5.18337 15.3333 3.71671 14.7333 3.19171 13.4583C2.66671 12.1833 3.26671 10.7166 4.54171 10.1916C5.81671 9.66658 7.28337 10.2666 7.80837 11.5416C8.34171 12.8166 7.73337 14.2833 6.45837 14.8083Z" fill="#EEC044"/>
    </svg>
    