<svg width="29" height="33" viewBox="0 0 29 33" fill="none" xmlns="http://www.w3.org/2000/svg">
<g filter="url(#filter0_ii_1490_355)">
<path d="M0.569814 0.509432C0.211681 0.904602 -5.25811e-07 1.51789 -5.25811e-07 2.31208V30.6874C-5.25811e-07 31.4828 0.211681 32.0948 0.569814 32.49L0.660885 32.5824L15.908 16.687V16.4997V16.3124L0.660885 0.415772L0.569814 0.509432Z" fill="url(#paint0_linear_1490_355)"/>
<path d="M20.9893 21.9869L15.9077 16.6867V16.4994V16.3121L20.9905 11.0132L21.105 11.0812L27.1268 14.648C28.846 15.6667 28.846 17.3333 27.1268 18.3533L21.105 21.9201L20.9893 21.9869Z" fill="url(#paint1_linear_1490_355)"/>
<g filter="url(#filter1_i_1490_355)">
<path d="M21.105 21.919L15.9065 16.4995L0.569581 32.4898C1.1357 33.1159 2.07226 33.1929 3.12697 32.5693L21.105 21.919Z" fill="url(#paint2_linear_1490_355)"/>
</g>
<path d="M21.105 11.0803L3.12697 0.431191C2.07226 -0.19364 1.1357 -0.115375 0.569581 0.510739L15.9078 16.501L21.105 11.0803Z" fill="url(#paint3_linear_1490_355)"/>
</g>
<defs>
<filter id="filter0_ii_1490_355" x="0" y="0" width="28.4163" height="33" filterUnits="userSpaceOnUse" color-interpolation-filters="sRGB">
<feFlood flood-opacity="0" result="BackgroundImageFix"/>
<feBlend mode="normal" in="SourceGraphic" in2="BackgroundImageFix" result="shape"/>
<feColorMatrix in="SourceAlpha" type="matrix" values="0 0 0 0 0 0 0 0 0 0 0 0 0 0 0 0 0 0 127 0" result="hardAlpha"/>
<feOffset dy="-0.795"/>
<feComposite in2="hardAlpha" operator="arithmetic" k2="-1" k3="1"/>
<feColorMatrix type="matrix" values="0 0 0 0 0 0 0 0 0 0 0 0 0 0 0 0 0 0 0.12 0"/>
<feBlend mode="normal" in2="shape" result="effect1_innerShadow_1490_355"/>
<feColorMatrix in="SourceAlpha" type="matrix" values="0 0 0 0 0 0 0 0 0 0 0 0 0 0 0 0 0 0 127 0" result="hardAlpha"/>
<feOffset dy="0.795"/>
<feComposite in2="hardAlpha" operator="arithmetic" k2="-1" k3="1"/>
<feColorMatrix type="matrix" values="0 0 0 0 1 0 0 0 0 1 0 0 0 0 1 0 0 0 0.25 0"/>
<feBlend mode="normal" in2="effect1_innerShadow_1490_355" result="effect2_innerShadow_1490_355"/>
</filter>
<filter id="filter1_i_1490_355" x="0.56958" y="16.4995" width="20.5354" height="16.5005" filterUnits="userSpaceOnUse" color-interpolation-filters="sRGB">
<feFlood flood-opacity="0" result="BackgroundImageFix"/>
<feBlend mode="normal" in="SourceGraphic" in2="BackgroundImageFix" result="shape"/>
<feColorMatrix in="SourceAlpha" type="matrix" values="0 0 0 0 0 0 0 0 0 0 0 0 0 0 0 0 0 0 127 0" result="hardAlpha"/>
<feOffset dy="-0.795"/>
<feComposite in2="hardAlpha" operator="arithmetic" k2="-1" k3="1"/>
<feColorMatrix type="matrix" values="0 0 0 0 0 0 0 0 0 0 0 0 0 0 0 0 0 0 0.08 0"/>
<feBlend mode="normal" in2="shape" result="effect1_innerShadow_1490_355"/>
</filter>
<linearGradient id="paint0_linear_1490_355" x1="14.5564" y1="2.01185" x2="-6.95655" y2="22.6475" gradientUnits="userSpaceOnUse">
<stop stop-color="#00A0FF"/>
<stop offset="0.0066" stop-color="#00A1FF"/>
<stop offset="0.2601" stop-color="#00BEFF"/>
<stop offset="0.5122" stop-color="#00D2FF"/>
<stop offset="0.7604" stop-color="#00DFFF"/>
<stop offset="1" stop-color="#00E3FF"/>
</linearGradient>
<linearGradient id="paint1_linear_1490_355" x1="29.3648" y1="16.4994" x2="-0.413056" y2="16.4994" gradientUnits="userSpaceOnUse">
<stop stop-color="#FFE000"/>
<stop offset="0.4087" stop-color="#FFBD00"/>
<stop offset="0.7754" stop-color="#FFA500"/>
<stop offset="1" stop-color="#FF9C00"/>
</linearGradient>
<linearGradient id="paint2_linear_1490_355" x1="18.2819" y1="19.4426" x2="-10.8924" y2="47.4272" gradientUnits="userSpaceOnUse">
<stop stop-color="#FF3A44"/>
<stop offset="1" stop-color="#C31162"/>
</linearGradient>
<linearGradient id="paint3_linear_1490_355" x1="-3.29309" y1="-8.93511" x2="9.73406" y2="3.56077" gradientUnits="userSpaceOnUse">
<stop stop-color="#32A071"/>
<stop offset="0.0685" stop-color="#2DA771"/>
<stop offset="0.4762" stop-color="#15CF74"/>
<stop offset="0.8009" stop-color="#06E775"/>
<stop offset="1" stop-color="#00F076"/>
</linearGradient>
</defs>
</svg>
