<svg width="21" height="20" viewBox="0 0 21 20" fill="none" xmlns="http://www.w3.org/2000/svg">
    <path d="M7.92191 13.75H13.0782C13.1641 13.75 13.2344 13.6797 13.2344 13.5938V11.9531C13.2344 11.8672 13.1641 11.7969 13.0782 11.7969H12.2969C12.211 11.7969 12.1407 11.8672 12.1407 11.9531V12.6562H8.85941V11.9531C8.85941 11.8672 8.7891 11.7969 8.70316 11.7969H7.92191C7.83597 11.7969 7.76566 11.8672 7.76566 11.9531V13.5938C7.76566 13.6797 7.83597 13.75 7.92191 13.75ZM14.5625 11.3477C14.5625 11.5549 14.6448 11.7536 14.7914 11.9001C14.9379 12.0466 15.1366 12.1289 15.3438 12.1289C15.551 12.1289 15.7497 12.0466 15.8962 11.9001C16.0427 11.7536 16.125 11.5549 16.125 11.3477C16.125 11.1405 16.0427 10.9417 15.8962 10.7952C15.7497 10.6487 15.551 10.5664 15.3438 10.5664C15.1366 10.5664 14.9379 10.6487 14.7914 10.7952C14.6448 10.9417 14.5625 11.1405 14.5625 11.3477ZM19.2305 8.07422L18.7676 7.26562C18.7468 7.22998 18.7127 7.20402 18.6728 7.1934C18.633 7.18279 18.5905 7.18839 18.5547 7.20898L17.5645 7.78711L16.0352 3.56445C15.9544 3.31249 15.7957 3.0927 15.5819 2.93683C15.3681 2.78096 15.1103 2.69707 14.8457 2.69727H6.38285C5.70511 2.69727 5.10355 3.13477 4.89457 3.78125L3.43753 7.78906L2.44535 7.21094C2.40957 7.19035 2.36711 7.18474 2.32722 7.19536C2.28733 7.20597 2.25327 7.23193 2.23246 7.26758L1.76957 8.07422C1.7266 8.14844 1.75199 8.24219 1.82621 8.28516L3.00589 8.97266L2.72269 9.75391C2.69925 9.81641 2.68753 9.88281 2.68753 9.94922V16.75C2.68753 17.0566 2.918 17.3047 3.20121 17.3047H4.52152C4.76175 17.3047 4.97074 17.123 5.02152 16.8691L5.17191 16.1328H15.8282L15.9785 16.8691C16.0313 17.123 16.2383 17.3047 16.4785 17.3047H17.7989C18.0821 17.3047 18.3125 17.0566 18.3125 16.75V9.94922C18.3125 9.88281 18.3008 9.81641 18.2774 9.75391L17.9942 8.97266L19.1719 8.28516C19.2074 8.26468 19.2334 8.23111 19.2443 8.19167C19.2553 8.15222 19.2503 8.11005 19.2305 8.07422ZM16.9063 10.0977V14.7266H4.09378V10.0977L4.39847 9.25781H16.6016L16.9063 10.0977ZM6.21683 4.25977L6.2266 4.23438L6.23441 4.20898C6.25589 4.14453 6.31449 4.10156 6.38285 4.10156H14.7344L16.2071 8.16406H4.79691L6.21683 4.25977ZM4.87503 11.3477C4.87503 11.5549 4.95734 11.7536 5.10386 11.9001C5.25037 12.0466 5.44908 12.1289 5.65628 12.1289C5.86348 12.1289 6.0622 12.0466 6.20871 11.9001C6.35522 11.7536 6.43753 11.5549 6.43753 11.3477C6.43753 11.1405 6.35522 10.9417 6.20871 10.7952C6.0622 10.6487 5.86348 10.5664 5.65628 10.5664C5.44908 10.5664 5.25037 10.6487 5.10386 10.7952C4.95734 10.9417 4.87503 11.1405 4.87503 11.3477Z" fill="#EEC044"/>
    </svg>
    