<svg width="48" height="48" viewBox="0 0 48 48" fill="none" xmlns="http://www.w3.org/2000/svg">
    <g clip-path="url(#clip0_431_310)">
    <path d="M13.9361 29.4514C13.4112 29.4514 12.9713 29.629 12.6162 29.984C12.2611 30.3391 12.0836 30.7791 12.0836 31.304C12.0836 31.8289 12.2611 32.2688 12.6162 32.6239C12.9713 32.979 13.4112 33.1565 13.9361 33.1565C14.461 33.1565 14.901 32.979 15.2561 32.6239C15.6111 32.2688 15.7887 31.8289 15.7887 31.304C15.7887 30.7791 15.6111 30.3391 15.2561 29.984C14.901 29.629 14.461 29.4514 13.9361 29.4514ZM13.9361 17.5951C12.0527 17.5951 10.2774 17.9502 8.61007 18.6604C6.94277 19.4014 5.49161 20.3894 4.25658 21.6244C3.02155 22.8595 2.03353 24.3106 1.29251 25.9779C0.582366 27.6452 0.227295 29.4206 0.227295 31.304C0.227295 33.1874 0.582366 34.9628 1.29251 36.63C2.03353 38.2973 3.02155 39.7485 4.25658 40.9835C5.49161 42.2186 6.94277 43.2066 8.61007 43.9476C10.2774 44.6577 12.0527 45.0128 13.9361 45.0128C15.8196 45.0128 17.5949 44.6577 19.2622 43.9476C20.9295 43.2066 22.3807 42.2186 23.6157 40.9835C24.8507 39.7485 25.8387 38.2973 26.5798 36.63C27.2899 34.9628 27.645 33.1874 27.645 31.304C27.645 29.4206 27.2899 27.6452 26.5798 25.9779C25.8387 24.3106 24.8507 22.8595 23.6157 21.6244C22.3807 20.3894 20.9295 19.4014 19.2622 18.6604C17.5949 17.9502 15.8196 17.5951 13.9361 17.5951ZM13.9361 35.9353C12.6702 35.9353 11.5819 35.4799 10.671 34.5691C9.76019 33.6583 9.30477 32.5699 9.30477 31.304C9.30477 30.0381 9.76019 28.9497 10.671 28.0389C11.5819 27.128 12.6702 26.6726 13.9361 26.6726C15.202 26.6726 16.2904 27.128 17.2012 28.0389C18.1121 28.9497 18.5675 30.0381 18.5675 31.304C18.5675 32.5699 18.1121 33.6583 17.2012 34.5691C16.2904 35.4799 15.202 35.9353 13.9361 35.9353ZM31.1185 16.9004L27.6913 5.64621H29.8217C30.2231 5.64621 30.555 5.50727 30.8175 5.22939C31.0799 4.95151 31.2111 4.62732 31.2111 4.25681C31.2111 3.8863 31.0799 3.5621 30.8175 3.28422C30.555 3.00634 30.2231 2.86739 29.8217 2.86739H19.3085V15.6963C19.7717 15.8815 20.2194 16.0668 20.6516 16.252C21.0839 16.4373 21.5161 16.6534 21.9484 16.9004H31.1185ZM16.5297 15.0016V2.86739H9.02689C8.74901 2.86739 8.49428 2.9523 8.26271 3.12212C8.03115 3.29193 7.85361 3.50035 7.73011 3.74735C7.69923 3.8091 7.67607 3.8863 7.66064 3.97892C7.6452 4.07155 7.63748 4.14874 7.63748 4.21049C7.63748 4.24137 7.63748 4.25681 7.63748 4.25681V16.0668C8.6255 15.6654 9.6444 15.3566 10.6942 15.1405C11.744 14.9244 12.8246 14.8163 13.9361 14.8163C14.3684 14.8163 14.8007 14.8318 15.2329 14.8626C15.6652 14.8935 16.0974 14.9398 16.5297 15.0016ZM47.6525 39.0847C47.6525 40.7211 47.0736 42.1182 45.9157 43.2761C44.7579 44.4339 43.3607 45.0128 41.7243 45.0128C40.0879 45.0128 38.6985 44.4339 37.5561 43.2761C36.4137 42.1182 35.8425 40.7211 35.8425 39.0847C35.8425 37.4483 36.4137 36.0588 37.5561 34.9164C38.6985 33.774 40.0879 33.2028 41.7243 33.2028C43.3607 33.2028 44.7579 33.774 45.9157 34.9164C47.0736 36.0588 47.6525 37.4483 47.6525 39.0847ZM42.0022 24.3569H44.9663C44.6266 23.338 44.0709 22.4426 43.299 21.6707C42.5271 20.8988 41.6317 20.3431 40.6128 20.0034V22.9675C40.6128 23.338 40.7517 23.6622 41.0296 23.9401C41.3075 24.218 41.6317 24.3569 42.0022 24.3569ZM45.3368 31.2113V27.1357H42.0022C40.8598 27.1357 39.8795 26.7266 39.0613 25.9084C38.2431 25.0902 37.834 24.1099 37.834 22.9675V19.7256C37.834 19.6947 37.834 19.6715 37.834 19.6561C37.834 19.6407 37.834 19.6329 37.834 19.6329H25.5609C27.0738 21.115 28.2625 22.8595 29.127 24.8664C29.9915 26.8733 30.4238 29.0192 30.4238 31.304C30.4238 32.1994 30.3543 33.0871 30.2154 33.967C30.0764 34.847 29.868 35.6883 29.5901 36.4911H33.4342C33.9899 34.7312 35.0243 33.28 36.5372 32.1376C38.0501 30.9952 39.7792 30.424 41.7243 30.424C42.3727 30.424 42.998 30.4858 43.6 30.6093C44.2021 30.7328 44.781 30.9335 45.3368 31.2113ZM38.0192 15.0942C38.0192 15.0324 38.0424 14.9707 38.0887 14.9089C38.135 14.8472 38.2045 14.8163 38.2971 14.8163H38.9455C39.316 14.8163 39.6402 14.6774 39.9181 14.3995C40.196 14.1216 40.3349 13.7974 40.3349 13.4269C40.3349 13.0564 40.196 12.7322 39.9181 12.4543C39.6402 12.1764 39.316 12.0375 38.9455 12.0375H38.2971C37.4635 12.0375 36.7456 12.3385 36.1435 12.9406C35.5415 13.5427 35.2404 14.2606 35.2404 15.0942V16.9004H38.0192V15.0942Z" fill="white"/>
    </g>
    <defs>
    <clipPath id="clip0_431_310">
    <rect width="47.4252" height="47.4252" fill="white" transform="matrix(1 0 0 -1 0.227295 47.6525)"/>
    </clipPath>
    </defs>
    </svg>
    