<svg width="21" height="20" viewBox="0 0 21 20" fill="none" xmlns="http://www.w3.org/2000/svg">
    <path d="M5.70837 10.0001C5.54261 10.0001 5.38364 10.0659 5.26643 10.1831C5.14922 10.3004 5.08337 10.4593 5.08337 10.6251C5.08337 10.7908 5.14922 10.9498 5.26643 11.067C5.38364 11.1842 5.54261 11.2501 5.70837 11.2501H6.12504C6.2908 11.2501 6.44977 11.1842 6.56698 11.067C6.68419 10.9498 6.75004 10.7908 6.75004 10.6251C6.75004 10.4593 6.68419 10.3004 6.56698 10.1831C6.44977 10.0659 6.2908 10.0001 6.12504 10.0001H5.70837ZM5.08337 7.70841C5.08337 7.54265 5.14922 7.38368 5.26643 7.26647C5.38364 7.14926 5.54261 7.08341 5.70837 7.08341H6.12504C6.2908 7.08341 6.44977 7.14926 6.56698 7.26647C6.68419 7.38368 6.75004 7.54265 6.75004 7.70841C6.75004 7.87417 6.68419 8.03315 6.56698 8.15036C6.44977 8.26757 6.2908 8.33341 6.12504 8.33341H5.70837C5.54261 8.33341 5.38364 8.26757 5.26643 8.15036C5.14922 8.03315 5.08337 7.87417 5.08337 7.70841ZM5.70837 4.16675C5.54261 4.16675 5.38364 4.2326 5.26643 4.34981C5.14922 4.46702 5.08337 4.62599 5.08337 4.79175C5.08337 4.95751 5.14922 5.11648 5.26643 5.23369C5.38364 5.3509 5.54261 5.41675 5.70837 5.41675H6.12504C6.2908 5.41675 6.44977 5.3509 6.56698 5.23369C6.68419 5.11648 6.75004 4.95751 6.75004 4.79175C6.75004 4.62599 6.68419 4.46702 6.56698 4.34981C6.44977 4.2326 6.2908 4.16675 6.12504 4.16675H5.70837ZM8.00004 10.6251C8.00004 10.4593 8.06589 10.3004 8.1831 10.1831C8.30031 10.0659 8.45928 10.0001 8.62504 10.0001H9.04171C9.20747 10.0001 9.36644 10.0659 9.48365 10.1831C9.60086 10.3004 9.66671 10.4593 9.66671 10.6251C9.66671 10.7908 9.60086 10.9498 9.48365 11.067C9.36644 11.1842 9.20747 11.2501 9.04171 11.2501H8.62504C8.45928 11.2501 8.30031 11.1842 8.1831 11.067C8.06589 10.9498 8.00004 10.7908 8.00004 10.6251ZM8.62504 7.08341C8.45928 7.08341 8.30031 7.14926 8.1831 7.26647C8.06589 7.38368 8.00004 7.54265 8.00004 7.70841C8.00004 7.87417 8.06589 8.03315 8.1831 8.15036C8.30031 8.26757 8.45928 8.33341 8.62504 8.33341H9.04171C9.20747 8.33341 9.36644 8.26757 9.48365 8.15036C9.60086 8.03315 9.66671 7.87417 9.66671 7.70841C9.66671 7.54265 9.60086 7.38368 9.48365 7.26647C9.36644 7.14926 9.20747 7.08341 9.04171 7.08341H8.62504ZM8.00004 4.79175C8.00004 4.62599 8.06589 4.46702 8.1831 4.34981C8.30031 4.2326 8.45928 4.16675 8.62504 4.16675H9.04171C9.20747 4.16675 9.36644 4.2326 9.48365 4.34981C9.60086 4.46702 9.66671 4.62599 9.66671 4.79175C9.66671 4.95751 9.60086 5.11648 9.48365 5.23369C9.36644 5.3509 9.20747 5.41675 9.04171 5.41675H8.62504C8.45928 5.41675 8.30031 5.3509 8.1831 5.23369C8.06589 5.11648 8.00004 4.95751 8.00004 4.79175ZM11.5417 10.0001C11.3759 10.0001 11.217 10.0659 11.0998 10.1831C10.9826 10.3004 10.9167 10.4593 10.9167 10.6251C10.9167 10.7908 10.9826 10.9498 11.0998 11.067C11.217 11.1842 11.3759 11.2501 11.5417 11.2501H11.9584C12.1241 11.2501 12.2831 11.1842 12.4003 11.067C12.5175 10.9498 12.5834 10.7908 12.5834 10.6251C12.5834 10.4593 12.5175 10.3004 12.4003 10.1831C12.2831 10.0659 12.1241 10.0001 11.9584 10.0001H11.5417ZM10.9167 7.70841C10.9167 7.54265 10.9826 7.38368 11.0998 7.26647C11.217 7.14926 11.3759 7.08341 11.5417 7.08341H11.9584C12.1241 7.08341 12.2831 7.14926 12.4003 7.26647C12.5175 7.38368 12.5834 7.54265 12.5834 7.70841C12.5834 7.87417 12.5175 8.03315 12.4003 8.15036C12.2831 8.26757 12.1241 8.33341 11.9584 8.33341H11.5417C11.3759 8.33341 11.217 8.26757 11.0998 8.15036C10.9826 8.03315 10.9167 7.87417 10.9167 7.70841ZM11.5417 4.16675C11.3759 4.16675 11.217 4.2326 11.0998 4.34981C10.9826 4.46702 10.9167 4.62599 10.9167 4.79175C10.9167 4.95751 10.9826 5.11648 11.0998 5.23369C11.217 5.3509 11.3759 5.41675 11.5417 5.41675H11.9584C12.1241 5.41675 12.2831 5.3509 12.4003 5.23369C12.5175 5.11648 12.5834 4.95751 12.5834 4.79175C12.5834 4.62599 12.5175 4.46702 12.4003 4.34981C12.2831 4.2326 12.1241 4.16675 11.9584 4.16675H11.5417Z" fill="#EEC044"/>
    <path d="M2.16663 16.6666V2.49992C2.16663 2.05789 2.34222 1.63397 2.65478 1.32141C2.96734 1.00885 3.39127 0.833252 3.83329 0.833252H13.8333C14.2753 0.833252 14.6992 1.00885 15.0118 1.32141C15.3244 1.63397 15.5 2.05789 15.5 2.49992V16.6666C15.5 16.8108 15.4816 16.9499 15.4475 17.0833H17.1666C17.2771 17.0833 17.3831 17.0394 17.4613 16.9612C17.5394 16.8831 17.5833 16.7771 17.5833 16.6666V9.99992C17.5833 9.93523 17.5682 9.87144 17.5393 9.81358C17.5104 9.75572 17.4684 9.7054 17.4166 9.66658L17 9.35408C16.8673 9.25463 16.7797 9.10657 16.7562 8.94247C16.7328 8.77838 16.7755 8.61169 16.875 8.47909C16.9744 8.34648 17.1225 8.25881 17.2866 8.23537C17.4507 8.21192 17.6174 8.25463 17.75 8.35408L18.1666 8.66658C18.5866 8.98158 18.8333 9.47492 18.8333 9.99992V16.6666C18.8333 17.1086 18.6577 17.5325 18.3451 17.8451C18.0326 18.1577 17.6087 18.3333 17.1666 18.3333H14.1983C14.1518 18.3333 14.1054 18.3283 14.06 18.3183C13.9858 18.3283 13.91 18.3333 13.8333 18.3333H10.7083C10.5425 18.3333 10.3836 18.2674 10.2664 18.1502C10.1491 18.033 10.0833 17.874 10.0833 17.7083V15.8333H7.58329V17.7083C7.58329 17.874 7.51744 18.033 7.40023 18.1502C7.28302 18.2674 7.12405 18.3333 6.95829 18.3333H3.83329C3.39127 18.3333 2.96734 18.1577 2.65478 17.8451C2.34222 17.5325 2.16663 17.1086 2.16663 16.6666ZM3.83329 17.0833H6.33329V15.2083C6.33329 15.0425 6.39914 14.8835 6.51635 14.7663C6.63356 14.6491 6.79253 14.5833 6.95829 14.5833H10.7083C10.8741 14.5833 11.033 14.6491 11.1502 14.7663C11.2674 14.8835 11.3333 15.0425 11.3333 15.2083V17.0833H13.8333C13.9438 17.0833 14.0498 17.0394 14.1279 16.9612C14.2061 16.8831 14.25 16.7771 14.25 16.6666V2.49992C14.25 2.38941 14.2061 2.28343 14.1279 2.20529C14.0498 2.12715 13.9438 2.08325 13.8333 2.08325H3.83329C3.72279 2.08325 3.6168 2.12715 3.53866 2.20529C3.46052 2.28343 3.41663 2.38941 3.41663 2.49992V16.6666C3.41663 16.7771 3.46052 16.8831 3.53866 16.9612C3.6168 17.0394 3.72279 17.0833 3.83329 17.0833Z" fill="#EEC044"/>
    </svg>
    